<svg xmlns="http://www.w3.org/2000/svg" viewBox="0 0 64 64">
  <defs>
    <linearGradient id="g" x1="0" y1="0" x2="1" y2="1">
      <stop offset="0%" stop-color="#2563eb" />
      <stop offset="100%" stop-color="#7c3aed" />
    </linearGradient>
  </defs>
  <rect x="6" y="6" width="52" height="52" rx="14" fill="url(#g)" />
  <path
    d="M24 17h16a7 7 0 0 1 7 7v16a7 7 0 0 1-7 7H24a7 7 0 0 1-7-7V24a7 7 0 0 1 7-7zm0 5a2 2 0 0 0-2 2v16a2 2 0 0 0 2 2h16a2 2 0 0 0 2-2V24a2 2 0 0 0-2-2h-6v13.8a2.2 2.2 0 0 1-3.8 1.5l-2.2-2.4-2.2 2.4A2.2 2.2 0 0 1 22 35.8V22h2z"
    fill="#fff"
  />
</svg>
